<?xml version="1.0"?>
<svg xmlns="http://www.w3.org/2000/svg" id="Layer_1" enable-background="new 0 0 512 512" height="512px" viewBox="0 0 512 512" width="512px"><g><g><path d="m308.73 30.026c23.358 0 42.362 19.021 42.362 42.399 0 8.291 6.716 15.013 15 15.013s15-6.722 15-15.013c.001-39.935-32.461-72.425-72.362-72.425h-107.686c-8.284 0-15 6.722-15 15.013s6.716 15.013 15 15.013h35.116v42.805h-35.116c-8.284 0-15 6.722-15 15.013v48.021h-10.968c-24.354 0-44.169 19.832-44.169 44.207v287.721c0 24.376 19.814 44.207 44.169 44.207h152.168c24.354 0 44.169-19.832 44.169-44.207v-287.721c0-24.376-19.814-44.207-44.169-44.207h-10.968v-48.021c0-8.292-6.716-15.013-15-15.013h-35.116v-42.805zm18.514 135.865c7.813 0 14.169 6.362 14.169 14.181v287.721c0 7.819-6.356 14.181-14.169 14.181h-152.168c-7.813 0-14.169-6.362-14.169-14.181v-287.721c0-7.819 6.356-14.181 14.169-14.181zm-40.968-63.034v33.008h-70.232v-33.008z" data-original="#000000" class="active-path" data-old_color="#000000" fill="#929DB1"/><path d="m210.675 341.904h25.222v25.242c0 8.292 6.716 15.013 15 15.013s15-6.722 15-15.013v-25.242h25.222c8.284 0 15-6.722 15-15.013 0-8.292-6.716-15.013-15-15.013h-25.222v-25.244c0-8.291-6.716-15.013-15-15.013s-15 6.722-15 15.013v25.244h-25.222c-8.284 0-15 6.722-15 15.013s6.716 15.013 15 15.013z" data-original="#000000" class="active-path" data-old_color="#000000" fill="#929DB1"/></g></g> </svg>
