<svg xmlns="http://www.w3.org/2000/svg" xmlns:xlink="http://www.w3.org/1999/xlink" width="292.864" height="109" viewBox="0 0 292.864 109"><defs><style>.a,.d{fill:none;}.a{stroke:#ededed;stroke-width:4px;}.b{fill:#0b0a0d;}.c{fill:#38373b;}.d{stroke:#3d3b41;}.e{filter:url(#e);}.f{filter:url(#c);}.g{filter:url(#a);}</style><filter id="a" x="0" y="9.921" width="63.887" height="84.764" filterUnits="userSpaceOnUse"><feOffset dy="1" input="SourceAlpha"/><feGaussianBlur stdDeviation="1" result="b"/><feFlood flood-opacity="0.161"/><feComposite operator="in" in2="b"/><feComposite in="SourceGraphic"/></filter><filter id="c" x="228.977" y="9.93" width="63.887" height="84.764" filterUnits="userSpaceOnUse"><feOffset dy="1" input="SourceAlpha"/><feGaussianBlur stdDeviation="1" result="d"/><feFlood flood-opacity="0.161"/><feComposite operator="in" in2="d"/><feComposite in="SourceGraphic"/></filter><filter id="e" x="41.251" y="0" width="210" height="109" filterUnits="userSpaceOnUse"><feOffset dy="3" input="SourceAlpha"/><feGaussianBlur stdDeviation="3" result="f"/><feFlood flood-opacity="0.161"/><feComposite operator="in" in2="f"/><feComposite in="SourceGraphic"/></filter></defs><g transform="translate(-38.955 -354)"><g transform="translate(44 360)"><g class="g" transform="matrix(1, 0, 0, 1, -5.05, -6)"><path class="a" d="M96.941,142.124s-33.737-12.5-47.65,8.59-5.637,49.94,2.168,55.292c6.22,4.266,15.266,10.1,30.494,5.554A59.566,59.566,0,0,0,94.4,206.006" transform="translate(-36.75 -124.52)"/></g><g class="f" transform="matrix(1, 0, 0, 1, -5.05, -6)"><path class="a" d="M55.147,3.68S21.409-8.825,7.5,12.269,1.86,62.209,9.665,67.561c6.22,4.266,15.266,10.1,30.494,5.554A59.566,59.566,0,0,0,52.6,67.561" transform="translate(287.82 88.69) rotate(180)"/></g><g class="e" transform="matrix(1, 0, 0, 1, -5.05, -6)"><rect class="b" width="192" height="91" rx="3" transform="translate(50.25 6)"/></g><path class="c" d="M0,0H180.467V76.751H0Z" transform="translate(51.05 7.513)"/></g><g transform="translate(1 258)"><line class="d" x2="191" transform="translate(88.5 115.5)"/><line class="d" x2="191" transform="translate(88.5 128.5)"/><line class="d" x2="191" transform="translate(88.5 141.5)"/><line class="d" x2="191" transform="translate(88.5 154.5)"/><line class="d" x2="191" transform="translate(88.5 167.5)"/><line class="d" x2="191" transform="translate(88.5 180.5)"/></g></g></svg>