<?xml version="1.0"?>
<svg xmlns="http://www.w3.org/2000/svg" height="512px" viewBox="0 0 512 512" width="512px"><g><g id="Out_line" data-name="Out line"><path d="m481.37305 78.05908-47.43164-47.43164a48.05392 48.05392 0 0 0 -67.88282 0l-183.43159 183.43164a103.88256 103.88256 0 0 0 -30.627 73.94092 87.98674 87.98674 0 0 1 -25.94141 62.62744l-102.74511 102.74512a24.81631 24.81631 0 0 0 -7.31448 17.65478v.32666a24.643 24.643 0 0 0 24.64358 24.646h.2666a24.87828 24.87828 0 0 0 17.71582-7.31006l102.751-102.75244a87.98441 87.98441 0 0 1 62.624-25.9375 103.88634 103.88634 0 0 0 73.94141-30.62744l183.43164-183.43164a48.05452 48.05452 0 0 0 0-67.88184zm-434.06153 399.31692a8.98313 8.98313 0 0 1 -6.40234 2.624h-.2666a8.6439 8.6439 0 0 1 -8.64356-8.645v-.32422a8.91219 8.91219 0 0 1 2.62891-6.34472l13.37207-13.37206 12.68652 12.68665zm239.31548-159.31692a87.98966 87.98966 0 0 1 -62.627 25.94092 103.88312 103.88312 0 0 0 -73.93848 30.624l-78.061 78.0625-12.68652-12.6865 78.05909-78.05908a103.88256 103.88256 0 0 0 30.62691-73.94092 87.98674 87.98674 0 0 1 25.94141-62.62744l150.05859-150.05856 92.686 92.686zm183.43159-183.43164-22.05859 22.05856-92.686-92.686 22.05909-22.05908a32.03555 32.03555 0 0 1 45.2539 0l47.43164 47.43164a32.035 32.035 0 0 1 -.00004 45.25488z" data-original="#000000" class="active-path" data-old_color="#000000" fill="#ECB22C"/><path d="m296 174.05908a41.66638 41.66638 0 0 0 -29.65723 12.28418l-64 64a41.94131 41.94131 0 0 0 59.31446 59.31348l64-64a41.94092 41.94092 0 0 0 -29.65723-71.59766zm18.34277 60.28418-64 64a25.94094 25.94094 0 1 1 -36.68554-36.68652l64-64a25.94094 25.94094 0 1 1 36.68554 36.68652z" data-original="#000000" class="active-path" data-old_color="#000000" fill="#ECB22C"/><path d="m360 120a32 32 0 1 0 32 32 32.03635 32.03635 0 0 0 -32-32zm0 48a16 16 0 1 1 16-16 16.01833 16.01833 0 0 1 -16 16z" data-original="#000000" class="active-path" data-old_color="#000000" fill="#ECB22C"/><path d="m225.373 256h45.255v16h-45.255z" transform="matrix(.707 -.707 .707 .707 -114.039 252.702)" data-original="#000000" class="active-path" data-old_color="#000000" fill="#ECB22C"/><path d="m268.686 224h22.627v16h-22.627z" transform="matrix(.707 -.707 .707 .707 -82.037 265.957)" data-original="#000000" class="active-path" data-old_color="#000000" fill="#ECB22C"/><circle cx="360" cy="152" r="8" data-original="#000000" class="active-path" data-old_color="#000000" fill="#ECB22C"/></g></g> </svg>
