<svg xmlns="http://www.w3.org/2000/svg" width="20.527" height="20.527" viewBox="0 0 20.527 20.527"><defs><style>.a{fill:#391778;}.b{fill:#5254bb;}</style></defs><path class="a" d="M6.628,17.961a.627.627,0,0,1-.268-.059.64.64,0,0,1-.374-.582V10.545a1.078,1.078,0,0,0-.313-.756L.689,4.808A2.334,2.334,0,0,1,0,3.144V1.5A1.5,1.5,0,0,1,1.5,0H14.967a1.5,1.5,0,0,1,1.5,1.5V3.126a2.364,2.364,0,0,1-.719,1.693L10.591,9.792a1.074,1.074,0,0,0-.328.771v3.4a2.349,2.349,0,0,1-.821,1.786l-2.4,2.053A.643.643,0,0,1,6.628,17.961ZM1.5,1.283a.214.214,0,0,0-.214.214V3.144A1.063,1.063,0,0,0,1.6,3.9L6.58,8.881a2.366,2.366,0,0,1,.689,1.664v5.381l1.337-1.146a1.069,1.069,0,0,0,.374-.812v-3.4A2.364,2.364,0,0,1,9.7,8.871L14.854,3.9a1.073,1.073,0,0,0,.327-.77V1.5a.214.214,0,0,0-.214-.214Zm0,0"/><path class="a" d="M305.724,266.263h-5.559a1.5,1.5,0,0,1-1.5-1.5V257.5a1.5,1.5,0,0,1,1.5-1.5h5.559a1.5,1.5,0,0,1,1.5,1.5v7.27A1.5,1.5,0,0,1,305.724,266.263Zm-5.559-8.98a.214.214,0,0,0-.214.214v7.27a.214.214,0,0,0,.214.214h5.559a.214.214,0,0,0,.214-.214V257.5a.214.214,0,0,0-.214-.214Zm0,0" transform="translate(-286.694 -245.737)"/><path class="b" d="M365.448,337.283h-2.138a.641.641,0,0,1,0-1.283h2.138a.641.641,0,1,1,0,1.283Zm0,0" transform="translate(-348.128 -322.529)"/><path class="b" d="M365.448,401.283h-2.138a.641.641,0,0,1,0-1.283h2.138a.641.641,0,1,1,0,1.283Zm0,0" transform="translate(-348.128 -383.964)"/></svg>