<?xml version="1.0"?>
<svg xmlns="http://www.w3.org/2000/svg" xmlns:xlink="http://www.w3.org/1999/xlink" version="1.1" id="Gloves" x="0px" y="0px" width="512px" height="512px" viewBox="0 0 144.083 144" enable-background="new 0 0 144.083 144" xml:space="preserve"><g><path d="M128.214,70.244c-1.272-3.337-4.527-5.58-8.1-5.58c-1.023,0-2.031,0.181-2.996,0.537l-3.775,1.191l9.711-21.687  c0.946-2.112,1.013-4.467,0.188-6.63c-0.825-2.164-2.443-3.876-4.556-4.822c-0.883-0.396-1.807-0.638-2.756-0.724  c0.411-1.689,0.304-3.462-0.329-5.122c-0.825-2.164-2.443-3.876-4.556-4.822c-1.123-0.503-2.314-0.758-3.539-0.758  c-2.873,0-5.529,1.426-7.13,3.736c-0.69-0.644-1.491-1.177-2.378-1.574c-1.124-0.503-2.314-0.759-3.54-0.759  c-3,0-5.763,1.555-7.334,4.045c-0.68-0.625-1.464-1.143-2.331-1.531c-1.123-0.503-2.314-0.758-3.539-0.758  c-3.412,0-6.519,2.012-7.914,5.125l-6.67,14.896c-0.043-4.741-3.911-8.586-8.663-8.586c-0.984,0-1.93,0.165-2.812,0.468  c-0.747-4.024-4.284-7.082-8.522-7.082s-7.775,3.057-8.522,7.082c-0.882-0.304-1.828-0.468-2.812-0.468  c-4.366,0-7.988,3.244-8.582,7.448c-0.865-0.291-1.791-0.448-2.752-0.448c-4.779,0-8.667,3.888-8.667,8.666v42.334  c0,0.328,0.057,0.646,0.16,0.943c0.84,6.701,5.093,12.449,11.174,15.251v8.556c0,1.657,1.343,3,3,3h28.834c1.657,0,3-1.343,3-3  v-9.635c1.917-1.205,3.997-2.854,5.13-3.821c0.431-0.368,0.849-0.79,1.26-1.253l16.198,7.254c0.39,0.174,0.808,0.262,1.227,0.262  c0.362,0,0.725-0.065,1.069-0.197c0.743-0.283,1.344-0.851,1.669-1.577l3.937-8.793c2.243-0.315,4.815-0.97,6.245-1.391  c4.018-1.183,8.591-5.104,13.887-9.644c3.74-3.207,7.609-6.523,11.682-9.26C128.008,78.295,129.697,74.129,128.214,70.244z   M32.673,116.173v-4.594h22.834v4.594H32.673z M62.739,101.156c-1.671,1.428-4.198,3.29-5.533,3.933  c-0.268,0.129-0.509,0.296-0.722,0.49H30.207c-4.892-1.791-8.332-6.222-8.803-11.42c-0.012-0.134-0.034-0.265-0.064-0.394V52.089  c0-1.47,1.196-2.666,2.667-2.666s2.667,1.196,2.667,2.666v18.332c0,1.657,1.343,3,3,3s3-1.343,3-3V52.089v-7  c0-1.47,1.196-2.666,2.667-2.666s2.667,1.196,2.667,2.666v25.332c0,1.657,1.343,3,3,3s3-1.343,3-3V45.089v-6.613  c0-1.47,1.196-2.666,2.667-2.666s2.667,1.196,2.667,2.666v6.613v25.332c0,1.657,1.343,3,3,3s3-1.343,3-3V45.089  c0-1.47,1.196-2.666,2.667-2.666s2.667,1.196,2.667,2.666v30.443c0,1.182,0.693,2.253,1.771,2.736  c1.078,0.486,2.339,0.29,3.222-0.494l8.012-7.123c0.043-0.039,0.086-0.079,0.127-0.121c1.008-1.007,2.764-1.007,3.772,0  c1.257,1.258,0.122,3.429-0.424,4.305c-2.783,4.46-5.135,9.443-7.21,13.84C67.374,94.123,64.945,99.27,62.739,101.156z   M83.81,105.016l-12.503-5.6c0.702-1.264,1.4-2.634,2.109-4.085l12.271,5.495L83.81,105.016z M120.462,76.138  c-4.363,2.933-8.548,6.521-12.239,9.686c-4.573,3.92-8.893,7.623-11.677,8.442c-2.108,0.621-5.175,1.287-6.656,1.328  c-0.298,0.009-0.588,0.063-0.862,0.153L76,89.912c1.912-4.039,3.905-8.149,6.246-11.901c2.678-4.291,2.516-8.784-0.424-11.723  c-1.637-1.637-3.813-2.539-6.128-2.539c-2.282,0-4.43,0.876-6.059,2.47l-2.959,2.631v-9.17l12.143-27.115  c0.581-1.3,2.198-1.938,3.524-1.344c0.65,0.291,1.147,0.818,1.401,1.483c0.254,0.666,0.233,1.39-0.059,2.041l-7.492,16.73  c-0.677,1.512,0,3.287,1.512,3.964c0.398,0.179,0.815,0.263,1.225,0.263c1.146,0,2.241-0.661,2.74-1.775l7.492-16.73  c0.001-0.002,0.001-0.004,0.002-0.006l2.859-6.383c0.581-1.3,2.197-1.938,3.524-1.343c0.65,0.291,1.147,0.817,1.401,1.483  s0.233,1.39-0.059,2.041L86.537,56.109c-0.677,1.512,0,3.287,1.512,3.964c0.398,0.179,0.815,0.263,1.225,0.263  c1.146,0,2.241-0.661,2.74-1.775l10.354-23.119c0.002-0.004,0.004-0.009,0.006-0.014l2.696-6.023c0.582-1.3,2.2-1.938,3.525-1.344  c0.649,0.291,1.147,0.818,1.401,1.483s0.233,1.39-0.059,2.041l-2.7,6.028c-0.001,0.002-0.002,0.004-0.003,0.006l0,0v0L96.88,60.742  c-0.677,1.512,0,3.287,1.512,3.964c0.398,0.179,0.815,0.263,1.225,0.263c1.146,0,2.241-0.661,2.74-1.775l10.353-23.119  c0-0.001,0.001-0.001,0.001-0.002c0.581-1.3,2.199-1.938,3.524-1.344c0.649,0.291,1.147,0.818,1.401,1.483s0.233,1.39-0.059,2.041  l-12.441,27.785c-0.482,1.078-0.287,2.339,0.498,3.221c0.787,0.884,2.019,1.222,3.144,0.866L119,70.899  c0.056-0.018,0.111-0.037,0.166-0.058c1.353-0.519,2.935,0.212,3.442,1.542C123.243,74.044,121.319,75.563,120.462,76.138z" data-original="#000000" class="active-path" data-old_color="#000000" fill="#ECB22C"/></g> </svg>
