<?xml version="1.0"?>
<svg xmlns="http://www.w3.org/2000/svg" height="512px" viewBox="-106 0 512 512" width="512px"><g><path d="m276.84375 161.910156c-13.039062-20.609375-30.839844-37.6875-51.84375-49.832031v-112.078125h-150v112.078125c-21.003906 12.144531-38.804688 29.222656-51.84375 49.832031-15.148438 23.941406-23.15625 51.636719-23.15625 80.089844v270h300v-270c0-28.453125-8.007812-56.148438-23.15625-80.089844zm-6.84375 95.089844v150h-240v-150zm-75-227v30h-90v-30zm-98.324219 104.476562 8.324219-4.136718v-40.339844h90v40.339844l8.324219 4.136718c36.585937 18.183594 60.824219 52.800782 65.738281 92.523438h-238.125c4.910156-39.722656 29.152344-74.339844 65.738281-92.523438zm-66.675781 347.523438v-45h240v45zm0 0" data-original="#000000" class="active-path" data-old_color="#000000" fill="#003CB7"/><path d="m105 347h30v30h30v-30h30v-30h-30v-30h-30v30h-30zm0 0" data-original="#000000" class="active-path" data-old_color="#000000" fill="#003CB7"/></g> </svg>
